<svg xmlns="http://www.w3.org/2000/svg" fill="#9a0000" viewBox="0 0 24 24"><g clip-path="url(#clip0_2971_3)"><path fill-rule="evenodd" d="M23.911 16.933c-.044 1.29-.267 2.134-.578 2.934-.31.8-.71 1.466-1.377 2.133s-1.334 1.067-2.134 1.378c-.755.31-1.644.489-2.933.578C15.689 24 15.244 24 12 24s-3.689 0-4.933-.089c-1.29-.044-2.134-.267-2.934-.578-.8-.266-1.466-.666-2.133-1.333-.667-.667-1.067-1.333-1.378-2.133-.266-.756-.489-1.645-.533-2.934C0 15.69 0 15.244 0 12c0-3.244 0-3.689.089-4.933.044-1.29.267-2.178.533-2.934C.933 3.333 1.333 2.667 2 2 2.667 1.333 3.333.933 4.133.622 4.89.312 5.778.133 7.067.09 8.31 0 8.756 0 12 0c3.244 0 3.689 0 4.933.089 1.29.044 2.178.222 2.934.533.8.311 1.466.711 2.133 1.378.667.667 1.067 1.333 1.378 2.133.31.756.489 1.645.578 2.934C24 8.31 24 8.756 24 12c0 3.244 0 3.689-.089 4.933Zm-2.133-9.777c-.045-1.156-.267-1.823-.4-2.223a3.69 3.69 0 0 0-.89-1.377c-.4-.4-.8-.667-1.377-.89-.444-.177-1.067-.355-2.222-.4C15.6 2.179 15.2 2.179 12 2.179s-3.6 0-4.844.089c-1.156.044-1.823.266-2.223.4a3.69 3.69 0 0 0-1.377.889c-.4.4-.667.8-.89 1.377-.177.445-.355 1.067-.4 2.223C2.179 8.4 2.179 8.8 2.179 12s0 3.6.089 4.844c.044 1.156.266 1.823.4 2.223.222.577.489.977.889 1.377s.8.667 1.377.89c.445.177 1.067.355 2.223.4 1.244.044 1.644.088 4.844.088s3.6 0 4.844-.089c1.156-.044 1.823-.266 2.223-.4a3.69 3.69 0 0 0 1.377-.889c.4-.4.667-.8.89-1.377.177-.445.355-1.067.4-2.223.044-1.244.088-1.644.088-4.844s0-3.6-.044-4.844ZM18.4 7.022c-.8 0-1.422-.666-1.422-1.422 0-.8.666-1.422 1.422-1.422.8 0 1.422.666 1.422 1.422.045.8-.622 1.422-1.422 1.422ZM12 18.178A6.165 6.165 0 0 1 5.822 12 6.165 6.165 0 0 1 12 5.822 6.165 6.165 0 0 1 18.178 12 6.165 6.165 0 0 1 12 18.178ZM12 8c-2.222 0-4 1.778-4 4s1.778 4 4 4 4-1.778 4-4-1.778-4-4-4Z" clip-rule="evenodd"/></g><defs><clipPath id="clip0_2971_3"><path fill="#9a0000" d="M0 0h24v24H0z"/></clipPath></defs></svg>