<svg xmlns="http://www.w3.org/2000/svg" fill="#9a0000" viewBox="0 0 24 14"><path d="M23.791 12.21c.026.042.053.094.082.156.029.063.058.173.088.331.029.159.027.3-.007.425-.033.125-.137.24-.312.344-.175.104-.421.156-.737.156l-3.2.05c-.2.042-.433.021-.699-.062a3.04 3.04 0 0 1-.65-.275l-.25-.15c-.25-.175-.541-.442-.874-.8-.334-.358-.619-.68-.856-.968a4.149 4.149 0 0 0-.763-.725c-.27-.196-.506-.26-.706-.194a.823.823 0 0 0-.1.044 1.596 1.596 0 0 0-.481.55c-.08.145-.15.362-.212.65-.063.287-.09.61-.081.968 0 .124-.015.24-.044.343a.832.832 0 0 1-.094.231l-.05.063c-.15.158-.37.25-.662.275h-1.437a5.682 5.682 0 0 1-1.824-.207 6.986 6.986 0 0 1-1.644-.662c-.47-.27-.9-.546-1.287-.825a7.429 7.429 0 0 1-.88-.718l-.313-.3a8.161 8.161 0 0 1-.344-.375 27.706 27.706 0 0 1-.893-1.137c-.45-.591-.892-1.22-1.325-1.887-.433-.666-.943-1.545-1.53-2.636a41.24 41.24 0 0 1-1.631-3.4A.995.995 0 0 1 0 1.14c0-.092.013-.159.038-.2l.05-.075C.213.705.45.626.8.626L4.224.601c.1.017.195.044.287.081a.855.855 0 0 1 .2.107l.063.037a.824.824 0 0 1 .3.4c.166.417.358.848.574 1.293.217.446.388.786.513 1.019l.2.362c.241.5.474.933.7 1.3.224.366.426.652.605.856.18.204.352.364.519.48.166.118.308.176.425.176.116 0 .229-.021.337-.063a.215.215 0 0 0 .062-.062c.025-.033.075-.125.15-.275.075-.15.132-.346.17-.587.037-.242.076-.58.118-1.012a9.726 9.726 0 0 0 0-1.563 5.8 5.8 0 0 0-.113-.911c-.058-.275-.116-.467-.175-.575l-.075-.15c-.208-.284-.562-.463-1.062-.538-.108-.016-.087-.116.063-.3.141-.158.3-.283.475-.374.441-.217 1.437-.317 2.986-.3.683.008 1.246.062 1.687.162.167.042.306.098.419.169.112.07.198.17.256.3.058.13.102.262.13.4.03.137.045.327.045.568 0 .242-.004.471-.013.688l-.031.88c-.012.371-.019.715-.019 1.031 0 .092-.004.267-.012.525-.009.258-.01.459-.007.6.005.142.02.31.044.506.025.196.073.358.144.488a.83.83 0 0 0 .281.306l.213.05c.075.016.183-.03.324-.138.142-.108.3-.252.475-.43.175-.18.392-.459.65-.838.258-.379.541-.827.85-1.343.5-.867.945-1.804 1.337-2.812a.854.854 0 0 1 .125-.218.556.556 0 0 1 .137-.132l.05-.037.063-.031.162-.038a.467.467 0 0 1 .25-.006l3.599-.025c.325-.042.591-.031.8.031.208.063.337.131.387.206l.074.125c.192.533-.433 1.757-1.874 3.674-.2.266-.47.62-.812 1.062-.65.833-1.025 1.378-1.125 1.636-.141.342-.083.68.175 1.013.142.175.48.516 1.012 1.025h.013l.012.012.013.012.025.025c1.174 1.092 1.97 2.012 2.386 2.762Z"/></svg>